<?xml version="1.0" encoding="utf-8"?>
<!-- Generator: Adobe Illustrator 27.5.0, SVG Export Plug-In . SVG Version: 6.00 Build 0)  -->
<svg version="1.1" id="Capa_1" xmlns="http://www.w3.org/2000/svg" xmlns:xlink="http://www.w3.org/1999/xlink" x="0px" y="0px"
	 viewBox="0 0 64.8 73" style="enable-background:new 0 0 64.8 73;" xml:space="preserve">
<style type="text/css">
	.st0{fill:#4F4F4F;}
</style>
<g>
	<path class="st0" d="M60.9,55.1c-0.2-1.7-1.1-3.3-2.4-4.3c-1.9-1.5-4.9-4.5-5.4-8.6c-0.7-6,1-27.4-16.5-29.9l-0.1,0
		c-0.1-0.8,0.1-1.5,0.2-1.7c0,0,0,0,0,0c0,0,0,0,0,0h0c0.2-0.5,0.3-1,0.3-1.5c0-2.5-2.1-4.6-4.6-4.6S27.7,6.5,27.7,9
		c0,0.6,0.1,1.1,0.3,1.6c0.1,0.2,0.3,0.9,0.1,1.7c-17.3,2.6-15.7,23.9-16.3,29.9c-0.5,4.1-3.6,7.1-5.4,8.6C5,51.8,4.1,53.4,4,55.1
		c-0.4,4.5,4.8,4,4.8,4h23.4h0.5h23.4C56.1,59.1,61.3,59.6,60.9,55.1z"/>
	<g>
		<path class="st0" d="M32.4,68.5c3.9,0,7.1-2.8,7.7-6.5H24.7C25.3,65.7,28.5,68.5,32.4,68.5z"/>
	</g>
</g>
</svg>
