<?xml version="1.0" encoding="utf-8"?>
<!-- Generator: Adobe Illustrator 27.5.0, SVG Export Plug-In . SVG Version: 6.00 Build 0)  -->
<svg version="1.1" id="Capa_1" xmlns="http://www.w3.org/2000/svg" xmlns:xlink="http://www.w3.org/1999/xlink" x="0px" y="0px"
	 viewBox="0 0 64.8 73" style="enable-background:new 0 0 64.8 73;" xml:space="preserve">
<style type="text/css">
	.st0{fill-rule:evenodd;clip-rule:evenodd;fill:#595959;}
</style>
<g>
	<path class="st0" d="M32.4,3.8c9.7,0,17.9,8.6,17.9,19.3c0,10.7-8.2,19.2-17.9,19.2c-10,0-17.8-8.5-17.8-19.2
		C14.6,12.4,22.4,3.8,32.4,3.8L32.4,3.8z"/>
	<path class="st0" d="M15.6,38.4l15.7,6.8l17.5-6.8c3.9-1.4,7.9,2.8,7.9,6.1v18.6c0,3.6-3.6,6-7.9,6H15.6c-4.3,0-7.5-2.4-7.5-6V44.5
		C8.1,41.3,12,37,15.6,38.4L15.6,38.4z"/>
</g>
</svg>
